<?xml version="1.0" standalone="no"?><!DOCTYPE svg PUBLIC "-//W3C//DTD SVG 1.1//EN" "http://www.w3.org/Graphics/SVG/1.1/DTD/svg11.dtd"><svg t="1698417353616" class="icon" viewBox="0 0 1024 1024" version="1.1" xmlns="http://www.w3.org/2000/svg" p-id="1738" xmlns:xlink="http://www.w3.org/1999/xlink" width="200" height="200"><path d="M887.63 627.02c-39.13-22.3-60.49-25.24-74.95-31.89-14.46-6.65-38.49-27.78-46.43-44.22-7.94-16.43-32.36-73.96-52.63-133.04-20.27-59.09-78.58-85.26-116.92-91.57-38.35-6.31-75.13-7.83-114.65 8.61-39.52 16.43-57.13 36.39-87.26 34.83-30.13-1.57-59.87-6.26-62.61-7.04-2.74-0.78-2.74-39.91-22.3-50.48-19.57-10.57-30.91-8.22-30.91-8.22s-5.09 1.86-8.61 16c-3.52 14.13-12.46 29-12.46 29s-20.02-4.7-76.37 18.78-98.61 42.26-100.17 51.65c-1.57 9.39-1.57 15.65 5.48 19.57 7.04 3.91 2.63 24.26 21.91 25.83 19.29 1.56 65.25 15.13 102.28 22.04s43.33-5.77 76.19 29.53 42.23 32.95 35.97 51.73-9.33 38.35-35.97 50.09c-26.64 11.74-45.42 23.48-45.42 28.17 0 4.7 3.91 12.52 3.91 12.52s-3.07 7.04 3.64 8.61 13.55 0 13.55 0 4.76 7.83 11 7.04c6.24-0.78 20.99-27.39 53.14-40.7 32.15-13.3 122.15-47.74 122.15-47.74s59.07 20.35 93.01 21.91c33.93 1.56 42.39 2.35 42.39 2.35l15.65 10.17s-0.78 7.83-22.7 6.26c-21.91-1.57-67.75-4.7-74.57-1.57-6.82 3.13-11.36 8.61-11.36 8.61s-4.07-0.33-3.28 6.1c0.78 6.43-9.87 10.34 3.28 14.25 13.15 3.91 56.19-7.83 100.8-7.83s69.12-1.11 70.17-6.43 2.08-2.6 0-9.43l-2.08-6.84s54.06-18.78 68.9-18.78c14.84 0 60.75-1.57 104.71 18.78 43.96 20.35 40.43 21.13 39.06 32.28-1.83 14.92-34.24 31.89-79.63 34.24-45.39 2.35-166.3 1.17-172.17 1.96s-6.26 7.04-1.17 7.04 145.75 4.67 166.3 4.67c39.72 0 77.68-9.56 90.39-17.58 14.14-8.92 20.74-21.33 22.11-32.48 1.37-11.3-0.77-20.74-11.37-26.78zM211.85 410.04c-7.89 0-14.28-5.88-14.28-13.13 0-7.25 6.39-13.13 14.28-13.13s14.28 5.88 14.28 13.13c0 7.26-6.39 13.13-14.28 13.13z" fill="#A99B96" p-id="1739"></path><path d="M212.14 397.23m-5.97 0a5.97 5.97 0 1 0 11.94 0 5.97 5.97 0 1 0-11.94 0Z" fill="#262322" p-id="1740"></path></svg>